<svg xmlns="http://www.w3.org/2000/svg" xmlns:xlink="http://www.w3.org/1999/xlink" width="100" height="100" viewBox="0 0 100 100">
  <defs>
    <clipPath id="clip-adidas">
      <rect width="100" height="100"/>
    </clipPath>
  </defs>
  <g id="adidas" clip-path="url(#clip-adidas)">
    <g id="XMLID_1_" transform="translate(-65.5 -69.5)">
      <path id="XMLID_11_" d="M157.77,115.954a16.041,16.041,0,0,1-2.548,3.7H79.191a27.442,27.442,0,0,1-2.443-3.7H157.77M152.1,123.52a12.253,12.253,0,0,1-3.888,3.415H85.943a20.806,20.806,0,0,1-3.626-3.415H152.1m-8.617,7.015c-6.726,5.018-14.108,7.566-19.7,7.934a41.286,41.286,0,0,1,.578-7.934h19.126m21.385-39.381c.578,6.148-1.419,13.635-5.2,21.2H131.656a34.265,34.265,0,0,1,3.862-5.228c8.144-9.51,20.65-15.422,29.346-15.973m-54.33,47.342c-5.386-.368-12.794-2.916-19.573-7.934h19.31a47.221,47.221,0,0,1,.263,7.934m6.726.578a34.457,34.457,0,0,1-6.043-8.512h12.006a38,38,0,0,1-5.964,8.512m-14.292-26.718H74.856c-3.809-7.566-5.675-15.054-5.123-21.2C78.35,91.7,90.961,97.59,99.1,107.126a46.075,46.075,0,0,1,3.862,5.228m26.4,0H105.121a39.518,39.518,0,0,1-.368-6.726c0-13.267,5.859-26.981,12.479-33.129,6.542,6.148,12.505,19.888,12.505,33.129a66.565,66.565,0,0,1-.368,6.726" transform="translate(-1.576)"/>
      <path id="XMLID_16_" d="M418.375,344.2a2.1,2.1,0,0,1,2.076,2.181,2.075,2.075,0,1,1-4.151,0A2.121,2.121,0,0,1,418.375,344.2Zm0,.289a1.84,1.84,0,0,0,0,3.678,1.842,1.842,0,0,0,1.786-1.786A1.864,1.864,0,0,0,418.375,344.489Zm.473,1.918c.105,0,.368.079.368.473v.657h-.368v-.289c0-.473-.105-.683-.368-.683h-.473v.946h-.368v-2.364h.762a.758.758,0,0,1,.841.683C419.242,346.092,419.032,346.407,418.848,346.407Zm-.841-.867v.657h.368c.184,0,.473-.105.473-.289a.4.4,0,0,0-.368-.368h-.473" transform="translate(-257.164 -200.319)"/>
      <path id="XMLID_17_" d="M383.982,380.24c3.967,0,7.3-1.6,7.3-5.57,0-2.259-1.6-3.783-4.177-4.466-2.653-.657-6.042-.552-6.042-2.259.184-1.13,1.235-1.419,2.837-1.419,2.469,0,2.575,1.314,2.68,2.181h4.046c-.289-3.126-2.837-5.307-6.91-5.307-4.256,0-6.726,2.259-6.726,5.228a4.373,4.373,0,0,0,2.259,3.967,18.2,18.2,0,0,0,4.177,1.156c1.786.184,3.389.368,3.494,1.6,0,.841-.841,1.892-2.759,1.892-2.759,0-3.31-1.524-3.31-2.548H376.6c.105,3.258,2.837,5.543,7.382,5.543" transform="translate(-227.894 -214.475)"/>
      <path id="XMLID_20_" d="M313.038,380.24a8.892,8.892,0,0,0,4.755-1.419v1.051h4.072V363.584h-4.1v1.235a7.958,7.958,0,0,0-4.755-1.419,8.476,8.476,0,0,0-8.512,8.433A8.563,8.563,0,0,0,313.038,380.24Zm-4.519-8.433a4.818,4.818,0,0,1,4.729-4.755,4.705,4.705,0,0,1,0,9.405,4.8,4.8,0,0,1-4.729-4.65" transform="translate(-174.736 -214.475)"/>
      <path id="XMLID_23_" d="M247.167,342.726v6.8a8.5,8.5,0,0,0-4.834-1.419,8.42,8.42,0,1,0,0,16.84,9.241,9.241,0,0,0,4.834-1.419v1.051h3.967V342.7h-3.967Zm-9.353,13.819a4.69,4.69,0,1,1,4.624,4.65,4.8,4.8,0,0,1-4.624-4.65" transform="translate(-122.684 -199.214)"/>
      <path id="XMLID_26_" d="M212.4,364.658h3.967V348.37H212.4Zm0-17.786h3.967V342.8H212.4v4.072" transform="translate(-106.832 -199.287)"/>
      <path id="XMLID_29_" d="M147.012,365.052a9.538,9.538,0,0,0,4.834-1.419v1.051h4.072V342.8h-4.072v6.8a8.488,8.488,0,1,0-4.834,15.448Zm-4.65-8.433a4.743,4.743,0,1,1,4.834,4.65,4.839,4.839,0,0,1-4.834-4.65" transform="translate(-52.347 -199.287)"/>
      <path id="XMLID_32_" d="M75.907,380.24a9.45,9.45,0,0,0,4.913-1.419v1.051h3.967V363.584H80.82v1.235a8.812,8.812,0,0,0-4.913-1.419,8.42,8.42,0,0,0,0,16.84Zm-4.545-8.433a4.743,4.743,0,1,1,4.65,4.65,4.8,4.8,0,0,1-4.65-4.65" transform="translate(0 -214.475)"/>
    </g>
  </g>
</svg>
