<svg xmlns="http://www.w3.org/2000/svg" xmlns:xlink="http://www.w3.org/1999/xlink" width="100" height="100" viewBox="0 0 100 100">
  <defs>
    <clipPath id="clip-jordan">
      <rect width="100" height="100"/>
    </clipPath>
  </defs>
  <g id="jordan" clip-path="url(#clip-jordan)">
    <g id="XMLID_1_" transform="translate(-66.101 -75.746)">
      <path id="XMLID_3_" d="M120.531,86c-.027-.188-.054-.4-.081-.618a5.257,5.257,0,1,1,5.62,4.867,1.8,1.8,0,0,1-.538,0,.726.726,0,0,0-.3.134c-.3.457.753.376.027,2.42a1.612,1.612,0,0,1-.081.457c-.054.78-.35,3.092-.4,4.329.161.188.188.269.188.7-.081.592-.215,2.017-.43,2.931a1.619,1.619,0,0,1-.753,1.129,19.336,19.336,0,0,1-1.4,4.948,6.049,6.049,0,0,1-.511,2.635c-.027,2.2.108,2.528-1.371,6.023a8.8,8.8,0,0,0,.376,4.464c.4,1.748,1.56,2.474,1.748,4.276a27.028,27.028,0,0,1-.592,10.38l.78,1.855c.968.457,3.415,1.667,2.071,3.63,1.909.995,4.76,2.044,7.126,4.087a26.172,26.172,0,0,1,2.85,2.662,4.846,4.846,0,0,1,2.8,1.183,100.865,100.865,0,0,1,13.2,10.057c.592.35.834.592,1.318.86.081.134.108.188.081.215a7.669,7.669,0,0,1-.323.78,8.1,8.1,0,0,0,.753.592c.188.054.188-.027.538-.108a2.7,2.7,0,0,0,1.183.726c.592-.161.484-.027.995-.592.188-.188.484,0,.484,0a4.356,4.356,0,0,1,1.129-.968,3.425,3.425,0,0,1,1.237-.269c.269,0,.215.3.188.376a7.324,7.324,0,0,0-1.344.618,10.552,10.552,0,0,0-1.425,1.963c1.613-.215,2.608.188,3.953.027a3.211,3.211,0,0,0,2.044-.565,8.711,8.711,0,0,1,1.4-.807,1.809,1.809,0,0,1,1.829.269c.4.457.645.457.027,1.1-.215.242-.538.538-.941.914a35.524,35.524,0,0,1-2.662,2.42,15.908,15.908,0,0,1-2.877,1.829,19.913,19.913,0,0,0-2.8,2.232,7.27,7.27,0,0,1-.887.592c-.565.376-.726.054-1.1-.618a8.088,8.088,0,0,1-.43-.78c-.3-.592-.538-1.264-.43-1.237a5.952,5.952,0,0,1-1.855-2.2,5.926,5.926,0,0,1-1.721-1.64l-1.21-.968c-1.371.3-1.694-.565-5.351-3.146a3.933,3.933,0,0,1-1.99-.914c-1.64-1.318-5.593-4.3-6.265-4.652a10.968,10.968,0,0,1-2.1-1.156,11.1,11.1,0,0,1-1.613-.35,10.594,10.594,0,0,0-1.8-.376,15.956,15.956,0,0,1-5.028-1.721c-.78-.376-1.452-.565-2.124-.834a24.236,24.236,0,0,0-3.791-1.425A12.956,12.956,0,0,1,114.8,147.6a4.773,4.773,0,0,0-.726-.376,1.652,1.652,0,0,0-1.049.161c-1.21.645-2.366,1.183-3.415,1.748-.968.511-1.882,1.076-2.823,1.613-.86.511-1.855.968-2.877,1.452,0,0-2.931,1.452-4.518,2.044a52.294,52.294,0,0,1-5.943,4.06c-.86.4-2.5,1.452-3.281,1.694-.43.35-1.99,1.452-3.2,2.366-.941.7-1.64,1.291-1.64,1.291-.538.484-.511.726-1.56.269-.3.242-.511.376-.7.511-.753.538-.807.4-1.1.4-.511.457-.592.215-1.049.753-.3.457,0,.35-.618.592-.134.054-.188.215-.3.3-.511.43-.511,1.613-1.721,1.694-.7.511-.538,1.1-1.076,1.076.027.511-.968,1.291-1.129,1.291-1.56.538-1.667-.618-3.523.242a4.487,4.487,0,0,1-1.076.511,3.133,3.133,0,0,1-2.42-.484,9.791,9.791,0,0,1-1.829-2.151c-.3-.726-.134-1.156.807-1.855.4-.242.457-.43,1.129-.484.323-.134.242.054.834-.134.35-.134.35-.027,1.022-.081a3.678,3.678,0,0,1,.672-.242l1.076-.376s.134-.134.672-.081c.43-.188.887-.457,1.129-.538-.054-.7.027-.672.35-.941.4-.35.484-.3.78-.081.134-.081.188-.108.161-.215-.054-.376-.35-.538-.269-1.344a2.192,2.192,0,0,1-.3-.968c.054-.269.134-.376.3-.457s.215.027.323.134a2.5,2.5,0,0,1,.3.726c.054.618.242,1.425.86.968.35-.376.43-1.344,1.156-1.129l.538.457a3.074,3.074,0,0,1,.726-.592s-.43-.43-.054-.753a7.723,7.723,0,0,0,1.1-.968,30.352,30.352,0,0,1,3.818-3.657,36.268,36.268,0,0,1,9.116-5.378,4.02,4.02,0,0,1,3.146-1.748,24.056,24.056,0,0,1,6.642-6.8c.7-1.291,1.022-1.156,1.936-1.4.726-.592.914-.592,1.237-1.21.323-1.264-.726-4.652,1.963-4.84a10.491,10.491,0,0,1,1.076-1.371,11.451,11.451,0,0,1-.726-2.716c-.027-.081-1.076-.834-.78-1.8a13.422,13.422,0,0,1-1.533-2.339c-.108,0-.215-.054-.35-.054a2.615,2.615,0,0,0-.484-.027,1.979,1.979,0,0,1-1.613,1.4c-1.344,2.85-1.8,4.034-5.566,6.4a8.87,8.87,0,0,0-1.963,3.523,2.605,2.605,0,0,0-.027,1.748c-.188.618-.134.672-.134.672a.99.99,0,0,0,.565.618c.457.108.914.108.887.618-.054.618-.887.538-1.291.457-1.506-.242-1.022-1.21-1.99-.887-.726.484-1.022,1.909-2.232,1.721-.161-.108-.108-.43,0-.645.161-.35.457-.645.3-.78-.78.242-2.366.78-2.366.78-.726.215-1.56-.161-.834-.645a7.011,7.011,0,0,0,1.425-.672s.3-.43-.269-.215a5.409,5.409,0,0,1-2.259.3,12.088,12.088,0,0,1-1.587-.3c-.188-.108-.35-.538.081-.538a14.317,14.317,0,0,0,3.039-.457c.511-.215,1.506-.78,2.071-1.076a4.866,4.866,0,0,1,.941-1.049c.565-.645,1.022-1.022,1.506-1.667a29.532,29.532,0,0,1,2.581-5,22.6,22.6,0,0,1,2.8-3.6,5.917,5.917,0,0,1,1.8-3.2,25.86,25.86,0,0,1,1.318-2.555c.188-.323.376-.618.565-.914.457-.726.941-2.1,2.77-2.313a6.428,6.428,0,0,0,1.076-.968c.457-.4.35-1.022.726-1.452-.565-.565-2.044-1.613-2.2-3.092a4.557,4.557,0,0,1,1.345-3.791,4.369,4.369,0,0,1,3.5-1.479,3.441,3.441,0,0,1,2.528,1.345c.511.511.7.188.914.807,1.4.376,1.318.215,1.318,1.237a1.753,1.753,0,0,1,.565,1.156,5.174,5.174,0,0,1,1.829-2.232c.3-.887.511-1.748.753-2.608.242-.807.538-1.64.78-2.259-.242-1.775.269-2.071.941-3.6-.134-.215-.108-.269-.054-.618.269-1.022.672-2.393.941-3.281a.508.508,0,0,1,.457-.376c.323-1.129.78-3.2.86-3.63a2.766,2.766,0,0,0-.134-2.2,4.4,4.4,0,0,0-.188-.753,24.063,24.063,0,0,1-1.1-2.2,15.251,15.251,0,0,1-.484-1.936c-.161-.914.054-.134.054-.134" transform="translate(0 0)"/>
    </g>
  </g>
</svg>
