<svg xmlns="http://www.w3.org/2000/svg" xmlns:xlink="http://www.w3.org/1999/xlink" width="100" height="100" viewBox="0 0 100 100">
  <defs>
    <clipPath id="clip-nike">
      <rect width="100" height="100"/>
    </clipPath>
  </defs>
  <g id="nike" clip-path="url(#clip-nike)">
    <path id="nike-2" data-name="nike" d="M148.551,396.717a12.294,12.294,0,0,1-7.264-2.376,14.358,14.358,0,0,1-1.509-1.478,9.172,9.172,0,0,1-1.636-2.88c-1.07-3.135-.519-7.25,1.575-11.766,1.793-3.866,4.56-7.7,9.387-13.01.711-.781,2.828-3.067,2.842-3.067s-.11.2-.256.434a27.525,27.525,0,0,0-2.914,6.577c-.94,3.366-.826,6.254.332,8.494a8.392,8.392,0,0,0,3.71,3.618c2.7,1.293,6.645,1.4,11.467.313.332-.075,16.783-4.348,36.557-9.5s35.956-9.356,35.959-9.353-45.942,19.242-69.793,29.223c-3.777,1.58-4.787,1.979-6.563,2.589A33.932,33.932,0,0,1,148.551,396.717Z" transform="translate(-136.801 -329.353)"/>
  </g>
</svg>
