<svg xmlns="http://www.w3.org/2000/svg" xmlns:xlink="http://www.w3.org/1999/xlink" width="100" height="100" viewBox="0 0 100 100">
  <defs>
    <clipPath id="clip-vans">
      <rect width="100" height="100"/>
    </clipPath>
  </defs>
  <g id="vans" clip-path="url(#clip-vans)">
    <g id="XMLID_1_" transform="translate(-66.6 -148.065)">
      <path id="XMLID_3_" d="M163.949,181.294c-.676,1.644.649,4.219-1.27,4.712L103,185.814l-6.324.137-.892,1.4-7.459,28.712-1.027.466-10.081-.192-.946-2C73.465,202.636,70.3,191.1,67.6,179.4a24.333,24.333,0,0,1,8.216.027c2.73,8.548,3.973,17.671,6.351,26.521l.324.247.73-.849,6.432-25.534.73-.6,67.782.11c1.892.63,5.946-1.37,5.784,1.973" transform="translate(0 0)" fill="#231f20"/>
      <path id="XMLID_4_" d="M368.133,219.356c.164,1.918-1.671,3.671-2.986,4.795-2.493-1.1-5.562-3.4-8.63-1.726a2.357,2.357,0,0,0-.931,3.068c4.247,3.178,11.808,1.452,13.4,7.863.795,2.767.164,6.3-2.027,8.274-3.534,3.288-8.658,4-13.589,2.575-2.164-.959-4.575-1.616-6.466-3.342a15.8,15.8,0,0,1,3.342-5.123c2.767.685,5.151,2.9,8.548,2.521a3.719,3.719,0,0,0,3.1-2c.411-4.795-5.726-2.932-8.521-4.3a7.84,7.84,0,0,1-5.7-5.89,7.548,7.548,0,0,1,2.438-7.452c5.1-3.479,13.151-2.932,18.027.74" transform="translate(-204.102 -27.021)" fill="#231f20"/>
      <path id="XMLID_5_" d="M279.632,221.336c.192,8.219.164,16.767-.055,24.959-2.658.685-5.644.082-8.438.082-2.274-3.781-3.644-7.4-6.247-11.205-.329-.137-.466.3-.712.384l-.219,10.575c-1.781.959-4.274.082-6.329.466l-.438-1.4c.082-7.753-.219-16.219.411-23.808a30.225,30.225,0,0,1,7.452-.384l.74.521,5.781,10.384.795-.164c-.192-3.068.466-6.932.3-10.329,1.945-.849,4.822-.384,6.959-.082" transform="translate(-138.536 -30.398)" fill="#231f20"/>
      <path id="XMLID_8_" d="M173.763,234.495a17.036,17.036,0,0,0-1.863-5.781c-1.151,1.589-1.123,3.836-1.616,5.726.959.849,2.438.438,3.479.055m6.137-7.26,4.63,18.712c-1.973.74-4.521.192-6.767.219-1.123-1.562-.411-4.521-2.959-4.849-2.384.137-5.452-.795-7.068,1.1l-1.1,3.836a19.106,19.106,0,0,1-6.74-.219c2.164-8.466,4.658-16.822,7.26-25.151a37.729,37.729,0,0,1,10.685,0Z" transform="translate(-67.456 -30.077)" fill="#231f20"/>
      <path id="XMLID_13_" d="M424.6,209.449a.534.534,0,0,0-.219-.027H424.3v.411h.137a.516.516,0,0,0,.219-.055.2.2,0,0,0,.082-.164.28.28,0,0,0-.137-.164m-.685,1.151v-1.425h.685a.409.409,0,0,1,.274.082.332.332,0,0,1,.192.329c0,.11-.027.219-.11.247a.335.335,0,0,1-.247.082.656.656,0,0,1,.192.082.454.454,0,0,1,.137.329v.274h-.356a1.546,1.546,0,0,1-.027-.192c0-.082,0-.137-.027-.164a.214.214,0,0,0-.11-.11,1.188,1.188,0,0,0-.137-.027h-.164v.493Zm-.192-1.452a1.059,1.059,0,0,0,0,1.479.953.953,0,0,0,.74.3,1.012,1.012,0,0,0,.74-.3,1.109,1.109,0,0,0,.3-.74,1.012,1.012,0,0,0-.3-.74,1,1,0,0,0-1.479,0m1.644,1.644a1.218,1.218,0,0,1-.9.356,1.335,1.335,0,0,1-.9-.356,1.218,1.218,0,0,1-.356-.9,1.187,1.187,0,0,1,.411-.932,1.2,1.2,0,0,1,.877-.356,1.31,1.31,0,0,1,1.288,1.288,1.388,1.388,0,0,1-.411.9" transform="translate(-259.498 -21.443)" fill="#231f20"/>
    </g>
  </g>
</svg>
